<svg width="2058" height="453" viewBox="0 0 2058 453" fill="none" xmlns="http://www.w3.org/2000/svg">
<path d="M579.618 103.745C580.958 98.4234 586.548 94.6108 593.052 94.6108H637.017C641.038 94.6108 644.829 96.1194 647.379 98.7526C649.929 101.386 650.876 104.814 650.059 108.106C647.542 118.117 655.257 126.236 667.286 126.236H861.71C878.315 126.236 889.037 137.427 885.539 151.114C882.074 164.828 865.698 175.992 849.093 175.992H654.668C642.639 175.992 630.806 184.111 628.289 194.067L620.281 225.693C617.764 235.649 625.478 243.768 637.507 243.768H849.485C868.607 243.768 880.898 256.578 876.91 272.294C872.922 288.066 854.127 300.875 835.005 300.875H600.244C561.346 300.875 536.307 274.708 544.446 242.561L579.618 103.745Z" fill="white"/>
<path d="M952.023 103.745C953.363 98.4234 958.952 94.6108 965.457 94.6108H1009.42C1013.44 94.6108 1017.27 96.1194 1019.78 98.7526C1022.3 101.386 1023.28 104.814 1022.46 108.106C1019.95 118.117 1027.66 126.236 1039.69 126.236H1234.11C1250.72 126.236 1261.44 137.427 1257.94 151.114C1254.48 164.828 1238.1 175.992 1221.5 175.992H1027.07C1015.04 175.992 1003.21 184.111 1000.66 194.067L992.653 225.693C990.136 235.649 997.85 243.768 1009.88 243.768H1221.86C1240.98 243.768 1253.27 256.578 1249.28 272.294C1245.29 288.066 1226.5 300.875 1207.38 300.875H972.616C933.718 300.875 908.679 274.708 916.818 242.561L952.023 103.745Z" fill="white"/>
<path d="M1638.43 45.925L1519.35 139.539C1510.72 146.259 1508.2 156.134 1513.4 162.991L1584.43 255.865C1598.09 273.83 1575.51 301.012 1547.46 301.012C1537.56 301.012 1529.12 297.447 1524.35 291.22L1461.79 209.373C1458.71 205.313 1453.29 203.009 1446.85 203.009C1441.68 203.009 1432.66 206.219 1428.64 209.373L1371.37 254.137C1365.13 259.019 1361.34 264.971 1359.31 272.898C1355.45 288.176 1337.18 300.628 1318.58 300.628H1314.33C1295.8 300.628 1283.84 288.176 1287.73 272.898L1331.27 101.002C1332.48 96.2019 1337.54 92.8008 1343.36 92.8008H1347.77C1361.7 92.8008 1374.9 98.1219 1383.7 107.201C1392.49 116.28 1395.92 128.211 1393.04 139.649C1389.12 155.311 1386.15 167.379 1385.4 170.973C1426.78 145.683 1405.76 160.413 1596.3 10.5968C1604.24 4.34308 1614.44 0.777344 1624.34 0.777344C1652.68 0.777344 1660.95 28.2335 1638.43 45.925Z" fill="white"/>
<path d="M1293.94 0.863281H530.523C514.899 0.863281 500.614 7.25418 491.821 17.5125C490.743 18.7468 489.697 20.0085 488.781 21.38C378.331 179.781 353.161 217.523 353.161 217.523C343.519 185.98 348.128 206.03 314.394 23.7663C308.837 -6.40533 256.832 -6.59733 235.716 23.7663C111.602 203.315 126.442 183.045 100.488 215.575C96.2385 198.487 97.6768 205.948 83.6866 132.384C79.4045 109.893 56.4253 93.353 29.2621 93.353H8.60366C6.08673 93.353 3.70055 94.2856 2.06618 95.8764C0.431808 97.4673 -0.287314 99.6067 0.104934 101.691L31.681 272.627C38.6107 309.848 102.743 310.205 128.893 272.847C295.435 34.8749 197.275 174.871 260.591 82.4364C275.267 171.47 251.308 46.4499 295.109 272.847C302.3 310.15 366.531 309.903 392.386 272.627L542.029 56.2145L1238.11 56.7356C1268.08 56.7356 1297.66 36.2738 1304.04 11.0942C1304.1 10.8748 1303.87 10.7651 1303.91 10.5456L1304.23 10.2713C1304.23 10.2988 1305.34 1.19243 1293.94 0.863281Z" fill="white"/>
<path d="M1617.96 209.675L1637.71 131.887C1638.33 129.418 1640.94 127.663 1643.95 127.663H1664.35C1666.21 127.663 1667.98 128.376 1669.15 129.583C1670.33 130.79 1670.79 132.408 1670.39 133.917C1669.22 138.552 1672.81 142.337 1678.37 142.337H1768.59C1776.33 142.337 1781.34 147.521 1779.7 153.912C1778.1 160.276 1770.52 165.46 1762.8 165.46H1672.52C1666.96 165.46 1661.47 169.217 1660.29 173.853L1651.21 209.702C1649.31 217.273 1640.29 223.417 1631.14 223.417C1621.95 223.389 1616.07 217.245 1617.96 209.675Z" fill="#AA0039"/>
<path d="M1821.45 130.597C1822.01 128.376 1824.36 126.785 1827.07 126.785H1827.34C1834.23 126.785 1840.8 129.418 1845.15 133.916C1849.5 138.414 1851.2 144.339 1849.76 150.017L1834.66 209.592C1832.73 217.162 1823.74 223.279 1814.59 223.279C1805.44 223.279 1799.55 217.135 1801.48 209.592L1821.45 130.597Z" fill="#AA0039"/>
<path d="M1795.1 110.081H1664.02H1648.2C1642.91 109.944 1643.43 105.72 1643.43 105.72L1643.59 105.583C1643.62 105.473 1643.49 105.418 1643.53 105.309C1646.5 93.5966 1660.23 84.1062 1674.15 84.1062H1801.67C1810.36 84.1062 1815.95 89.9485 1814.15 97.1074C1812.36 104.239 1803.79 110.081 1795.1 110.081Z" fill="#AA0039"/>
<path d="M2038.3 110.081H1907.22H1891.4C1886.1 109.944 1886.63 105.72 1886.63 105.72L1886.79 105.583C1886.82 105.473 1886.69 105.418 1886.72 105.309C1889.7 93.5966 1903.43 84.1062 1917.35 84.1062H2044.87C2053.56 84.1062 2059.15 89.9485 2057.32 97.1074C2055.55 104.239 2046.99 110.081 2038.3 110.081Z" fill="#AA0039"/>
<path d="M1853.81 110.081H1847.82H1832C1826.71 109.944 1827.23 105.72 1827.23 105.72L1827.39 105.583C1827.43 105.473 1827.3 105.418 1827.33 105.309C1830.3 93.5966 1844.03 84.1062 1857.96 84.1062H1860.34C1869.04 84.1062 1874.63 89.9485 1872.83 97.1074C1871.03 104.239 1862.47 110.081 1853.81 110.081Z" fill="#AA0039"/>
<path d="M1943.27 131.722C1943.86 129.363 1946.38 127.663 1949.26 127.663C1956.15 127.663 1962.72 130.269 1967.07 134.794C1971.42 139.293 1973.12 145.217 1971.68 150.895L1956.77 209.73C1954.85 217.273 1945.86 223.444 1936.67 223.444C1927.49 223.444 1921.6 217.3 1923.5 209.73L1943.27 131.722Z" fill="#AA0039"/>
<path d="M559.059 353.951H573.572L560.464 432.26H545.951L559.059 353.951Z" fill="#AA0039"/>
<path d="M587.04 376.8H601.553L592.237 432.261H577.724L587.04 376.8ZM587.824 359.712C588.609 355.241 593.25 352.004 598.447 352.004C603.775 352.004 607.273 355.268 606.489 359.712C605.704 364.073 601.161 367.446 595.865 367.446C590.57 367.446 587.17 364.073 587.824 359.712Z" fill="#AA0039"/>
<path d="M682.714 376.799L645.385 432.26H630.218L611.423 376.799H627.472L640.057 417.915L666.501 376.799H682.714Z" fill="#AA0039"/>
<path d="M750.742 404.638C750.48 405.845 750.088 407.902 749.565 409.219H694.879C695.664 417.283 702.397 422.604 712.367 422.604C720.8 422.604 728.318 419.34 732.077 414.677H747.767C741.034 425.896 726.782 433.603 710.438 433.603C690.336 433.603 677.391 421.096 680.104 404.556C682.817 388.017 700.207 375.509 720.277 375.509C740.511 375.482 753.488 387.989 750.742 404.638ZM696.71 399.208H735.967C734.921 391.61 728.057 386.481 718.479 386.481C708.902 386.481 700.338 391.582 696.71 399.208Z" fill="#AA0039"/>
<path d="M862.594 376.799L811.275 452.914H795.618L809.87 431.931L791.336 376.799H807.385L819.97 417.915L846.414 376.799H862.594Z" fill="#AA0039"/>
<path d="M860.015 404.529C862.728 387.989 880.118 375.482 900.318 375.482C920.421 375.482 933.496 387.989 930.783 404.529C928.07 421.068 910.549 433.576 890.479 433.576C870.279 433.576 857.302 421.068 860.015 404.529ZM915.747 404.529C917.446 394.737 910.059 387.249 898.259 387.249C886.59 387.249 876.62 394.764 874.92 404.529C873.351 414.321 880.739 421.836 892.408 421.836C904.241 421.809 914.21 414.321 915.747 404.529Z" fill="#AA0039"/>
<path d="M1008.58 376.798L999.227 432.259H984.713L986.021 424.854C980.039 430.504 972.292 433.549 963.336 433.549C948.169 433.549 939.474 425.073 941.697 412.127L947.679 376.771H962.192L956.733 408.534C955.556 416.488 960.754 421.809 970.069 421.809C979.124 421.809 986.282 417.119 988.472 410.07L994.062 376.798H1008.58Z" fill="#AA0039"/>
<path d="M1060.81 375.921L1058.75 388.428C1045.91 388.428 1037.37 394.956 1035.54 404.968L1031 432.259H1016.49L1025.8 376.799H1040.32L1038.75 385.823C1044.73 379.624 1052.38 375.921 1060.81 375.921Z" fill="#AA0039"/>
<path d="M1168.65 404.529C1165.94 421.069 1149.72 433.576 1131.19 433.576C1121.35 433.576 1113.83 429.764 1109.55 423.565L1108.14 432.26H1093.63L1106.71 353.951H1121.22L1115.89 385.494C1122.36 379.295 1131.19 375.482 1141.03 375.482C1159.56 375.482 1171.36 387.99 1168.65 404.529ZM1136.12 387.222C1124.45 387.222 1114.49 394.737 1112.79 404.529C1111.22 414.321 1118.6 421.809 1130.4 421.809C1142.07 421.809 1152.04 414.294 1153.61 404.529C1155.28 394.737 1147.89 387.222 1136.12 387.222Z" fill="#AA0039"/>
<path d="M1248.63 404.638C1248.37 405.845 1247.98 407.902 1247.45 409.219H1192.74C1193.52 417.283 1200.25 422.604 1210.22 422.604C1218.66 422.604 1226.17 419.34 1229.93 414.677H1245.62C1238.89 425.896 1224.64 433.603 1208.29 433.603C1188.19 433.603 1175.25 421.096 1177.96 404.556C1180.67 388.017 1198.06 375.509 1218.13 375.509C1238.37 375.482 1251.34 387.989 1248.63 404.638ZM1194.57 399.208H1233.82C1232.78 391.61 1225.91 386.481 1216.34 386.481C1206.76 386.481 1198.19 391.582 1194.57 399.208Z" fill="#AA0039"/>
<path d="M1255.24 415.939H1270.01C1269.36 419.861 1272.72 423.016 1277.79 423.016C1282.47 423.016 1286.62 420.52 1287.14 417.146C1287.79 413.004 1283.38 410.837 1276.91 409.301C1267.46 407.244 1258.37 402.993 1260.07 392.213C1262.04 381.571 1273.41 375.482 1285.47 375.482C1298.58 375.482 1306.85 382.997 1305.31 392.35H1290.54C1291.19 388.867 1288.22 386.042 1283.67 386.042C1279.39 386.042 1275.5 388.428 1275.11 391.473C1274.46 395.395 1278.74 397.672 1285.6 399.208C1295.97 401.484 1303.88 406.174 1302.34 416.076C1300.38 427.048 1288.87 433.576 1275.9 433.576C1262.1 433.576 1253.54 425.731 1255.24 415.939Z" fill="#AA0039"/>
<path d="M1355.69 387.88H1341.57L1334.18 432.26H1319.67L1327.05 387.88H1313.68L1315.64 376.799H1328.85L1331.2 363.084L1346.21 360.479L1343.49 376.799H1357.61L1355.69 387.88Z" fill="#AA0039"/>
<path d="M2044.31 181.726C2048.43 183.755 2051.7 186.526 2054.08 190.009C2056.47 193.493 2057.68 197.278 2057.68 201.392C2057.68 205.452 2056.47 209.237 2054.08 212.748C2051.7 216.258 2048.39 219.056 2044.24 221.141C2040.09 223.225 2035.52 224.268 2030.51 224.268C2025.58 224.268 2021.04 223.225 2016.88 221.196C2012.77 219.139 2009.5 216.368 2007.14 212.885C2004.76 209.401 2003.58 205.616 2003.58 201.557C2003.58 197.497 2004.79 193.712 2007.18 190.201C2009.56 186.69 2012.83 183.893 2016.95 181.808C2021.07 179.723 2025.64 178.681 2030.65 178.681C2035.65 178.681 2040.19 179.696 2044.31 181.726ZM2041.76 217.356C2045.13 215.71 2047.81 213.461 2049.73 210.608C2051.66 207.783 2052.64 204.711 2052.64 201.392C2052.64 198.073 2051.66 195.029 2049.73 192.258C2047.81 189.488 2045.16 187.239 2041.79 185.593C2038.42 183.947 2034.73 183.125 2030.68 183.125C2026.62 183.125 2022.93 183.975 2019.53 185.648C2016.13 187.321 2013.48 189.57 2011.56 192.396C2009.59 195.221 2008.65 198.265 2008.65 201.584C2008.65 204.903 2009.59 207.948 2011.52 210.745C2013.45 213.543 2016.07 215.765 2019.43 217.411C2022.8 219.056 2026.49 219.879 2030.55 219.879C2034.63 219.824 2038.39 219.001 2041.76 217.356ZM2040.81 201.776C2039.9 203.01 2038.56 203.943 2036.86 204.546L2042.77 211.925H2037.02L2032.31 205.369H2031.36H2025.45V211.925H2020.41V189.68H2031.36C2034.83 189.68 2037.51 190.338 2039.37 191.655C2041.27 192.972 2042.22 194.864 2042.22 197.305C2042.18 199.061 2041.73 200.542 2040.81 201.776ZM2025.42 201.804H2031.33C2033.26 201.804 2034.73 201.42 2035.81 200.624C2036.89 199.829 2037.41 198.759 2037.41 197.36C2037.41 195.989 2036.89 194.919 2035.81 194.206C2034.73 193.493 2033.26 193.136 2031.33 193.136H2025.42V201.804Z" fill="white"/>
</svg>
