<svg width="690" height="152" viewBox="0 0 690 152" fill="none" xmlns="http://www.w3.org/2000/svg">
<path d="M194.601 34.4472C195.05 32.6671 196.92 31.3916 199.096 31.3916H213.804C215.149 31.3916 216.417 31.8963 217.27 32.7772C218.123 33.6581 218.44 34.8051 218.167 35.9062C217.325 39.2555 219.906 41.9716 223.93 41.9716H288.973C294.528 41.9716 298.115 45.7155 296.945 50.2943C295.786 54.8824 290.307 58.617 284.752 58.617H219.709C215.685 58.617 211.726 61.3332 210.884 64.6641L208.205 75.2441C207.363 78.575 209.944 81.2912 213.968 81.2912H284.883C291.281 81.2912 295.392 85.5764 294.058 90.8343C292.724 96.1105 286.436 100.396 280.039 100.396H201.501C188.488 100.396 180.112 91.6418 182.835 80.8874L194.601 34.4472Z" fill="white"/>
<path d="M319.187 34.4472C319.636 32.6671 321.506 31.3916 323.682 31.3916H338.39C339.735 31.3916 341.014 31.8963 341.856 32.7772C342.698 33.6581 343.026 34.8051 342.753 35.9062C341.911 39.2555 344.492 41.9716 348.516 41.9716H413.559C419.114 41.9716 422.701 45.7155 421.531 50.2943C420.372 54.8824 414.893 58.617 409.338 58.617H344.295C340.271 58.617 336.312 61.3332 335.459 64.6641L332.78 75.2441C331.938 78.575 334.519 81.2912 338.543 81.2912H409.459C415.856 81.2912 419.967 85.5764 418.633 90.8343C417.299 96.1105 411.011 100.396 404.614 100.396H326.077C313.064 100.396 304.687 91.6418 307.41 80.8874L319.187 34.4472Z" fill="white"/>
<path d="M548.819 15.1038L508.981 46.4218C506.094 48.67 505.252 51.9733 506.991 54.2674L530.754 85.3376C535.325 91.3479 527.768 100.441 518.386 100.441C515.072 100.441 512.251 99.2485 510.654 97.1656L489.724 69.7841C488.696 68.4261 486.881 67.6553 484.727 67.6553C482.999 67.6553 479.981 68.7289 478.636 69.7841L459.477 84.7595C457.388 86.3928 456.12 88.384 455.442 91.0359C454.152 96.147 448.039 100.313 441.817 100.313H440.395C434.195 100.313 430.192 96.147 431.494 91.0359L446.059 33.5294C446.464 31.9236 448.159 30.7858 450.106 30.7858H451.582C456.24 30.7858 460.658 32.5659 463.6 35.6032C466.541 38.6405 467.69 42.6321 466.727 46.4585C465.415 51.6981 464.42 55.7355 464.168 56.9376C478.012 48.4773 470.981 53.4048 534.723 3.28504C537.38 1.19289 540.792 0 544.106 0C553.587 0 556.353 9.18526 548.819 15.1038Z" fill="white"/>
<path d="M433.571 0.0273438H178.177C172.949 0.0273438 168.171 2.16537 165.229 5.59723C164.868 6.01015 164.518 6.43225 164.212 6.89106C127.262 59.8829 118.841 72.5092 118.841 72.5092C115.616 61.9567 117.157 68.6645 105.872 7.68938C104.013 -2.40432 86.615 -2.46855 79.5508 7.68938C38.0294 67.756 42.994 60.9749 34.3113 71.8577C32.8898 66.141 33.3709 68.6369 28.6906 44.0267C27.2581 36.5023 19.5705 30.9691 10.4833 30.9691H3.57214C2.73012 30.9691 1.93184 31.2811 1.38507 31.8133C0.838306 32.3455 0.597729 33.0613 0.728953 33.7586L11.2925 90.944C13.6108 103.396 35.0659 103.515 43.8141 91.0174C99.5296 11.4057 66.6909 58.2404 87.8726 27.317C92.7825 57.1026 84.767 15.278 99.4203 91.0174C101.826 103.497 123.314 103.414 131.964 90.944L182.026 18.5447L414.894 18.719C424.921 18.719 434.818 11.8737 436.95 3.45002C436.972 3.37661 436.895 3.33991 436.906 3.2665L437.016 3.17474C437.016 3.18392 437.388 0.137457 433.571 0.0273438Z" fill="white"/>
<path d="M541.973 69.8847L548.578 43.8614C548.786 43.0355 549.661 42.4482 550.667 42.4482H557.49C558.114 42.4482 558.704 42.6868 559.098 43.0906C559.492 43.4943 559.645 44.0357 559.514 44.5404C559.12 46.0912 560.323 47.3575 562.182 47.3575H592.363C594.955 47.3575 596.628 49.0917 596.081 51.2298C595.545 53.3586 593.008 55.0929 590.428 55.0929H560.224C558.365 55.0929 556.528 56.35 556.135 57.9008L553.095 69.8939C552.46 72.4265 549.442 74.482 546.38 74.482C543.307 74.4728 541.339 72.4173 541.973 69.8847Z" fill="white"/>
<path d="M610.045 43.4308C610.231 42.6875 611.018 42.1553 611.926 42.1553H612.014C614.321 42.1553 616.519 43.0362 617.973 44.5411C619.428 46.0459 619.996 48.028 619.515 49.9274L614.463 69.8579C613.818 72.3905 610.811 74.4368 607.749 74.4368C604.687 74.4368 602.719 72.3813 603.364 69.8579L610.045 43.4308Z" fill="white"/>
<path d="M601.231 36.5667H557.381H552.088C550.317 36.5208 550.492 35.1077 550.492 35.1077L550.546 35.0618C550.557 35.0251 550.513 35.0068 550.524 34.9701C551.519 31.0519 556.112 27.877 560.771 27.877H603.429C606.338 27.877 608.208 29.8315 607.607 32.2264C607.005 34.6122 604.14 36.5667 601.231 36.5667Z" fill="white"/>
<path d="M682.59 36.5667H638.74H633.447C631.676 36.5208 631.85 35.1077 631.85 35.1077L631.905 35.0618C631.916 35.0251 631.872 35.0068 631.883 34.9701C632.878 31.0519 637.471 27.877 642.13 27.877H684.788C687.697 27.877 689.567 29.8315 688.955 32.2264C688.364 34.6122 685.499 36.5667 682.59 36.5667Z" fill="white"/>
<path d="M620.871 36.5667H618.87H613.577C611.806 36.5208 611.981 35.1077 611.981 35.1077L612.036 35.0618C612.046 35.0251 612.003 35.0068 612.014 34.9701C613.009 31.0519 617.602 27.877 622.26 27.877H623.058C625.967 27.877 627.837 29.8315 627.236 32.2264C626.634 34.6122 623.769 36.5667 620.871 36.5667Z" fill="white"/>
<path d="M650.802 43.8063C650.998 43.0172 651.84 42.4482 652.803 42.4482C655.11 42.4482 657.308 43.32 658.762 44.834C660.217 46.3389 660.786 48.3209 660.304 50.2204L655.318 69.9031C654.673 72.4265 651.665 74.4911 648.593 74.4911C645.52 74.4911 643.551 72.4357 644.186 69.9031L650.802 43.8063Z" fill="white"/>
<path d="M187.723 118.151H192.578L188.193 144.349H183.338L187.723 118.151Z" fill="white"/>
<path d="M197.084 125.795H201.939L198.823 144.349H193.967L197.084 125.795ZM197.346 120.078C197.609 118.583 199.162 117.5 200.9 117.5C202.683 117.5 203.853 118.592 203.59 120.078C203.328 121.537 201.808 122.666 200.036 122.666C198.265 122.666 197.128 121.537 197.346 120.078Z" fill="white"/>
<path d="M229.092 125.795L216.603 144.349H211.53L205.242 125.795H210.611L214.821 139.55L223.668 125.795H229.092Z" fill="white"/>
<path d="M251.848 135.108C251.76 135.512 251.629 136.2 251.454 136.641H233.159C233.422 139.338 235.674 141.119 239.01 141.119C241.831 141.119 244.346 140.027 245.604 138.467H250.853C248.6 142.22 243.832 144.798 238.365 144.798C231.639 144.798 227.309 140.614 228.217 135.081C229.124 129.548 234.942 125.363 241.656 125.363C248.425 125.354 252.766 129.538 251.848 135.108ZM233.772 133.291H246.905C246.555 130.75 244.259 129.034 241.055 129.034C237.851 129.034 234.986 130.74 233.772 133.291Z" fill="white"/>
<path d="M289.269 125.795L272.1 151.259H266.862L271.63 144.239L265.43 125.795H270.799L275.009 139.55L283.856 125.795H289.269Z" fill="white"/>
<path d="M288.405 135.072C289.312 129.539 295.13 125.354 301.888 125.354C308.613 125.354 312.987 129.539 312.08 135.072C311.172 140.605 305.311 144.789 298.596 144.789C291.838 144.789 287.497 140.605 288.405 135.072ZM307.049 135.072C307.618 131.796 305.147 129.291 301.199 129.291C297.295 129.291 293.96 131.805 293.391 135.072C292.866 138.348 295.338 140.862 299.242 140.862C303.2 140.853 306.536 138.348 307.049 135.072Z" fill="white"/>
<path d="M338.106 125.795L334.978 144.349H330.123L330.56 141.872C328.559 143.762 325.967 144.781 322.971 144.781C317.897 144.781 314.988 141.945 315.732 137.614L317.733 125.786H322.588L320.762 136.412C320.368 139.073 322.107 140.853 325.224 140.853C328.253 140.853 330.648 139.284 331.38 136.926L333.25 125.795H338.106Z" fill="white"/>
<path d="M355.58 125.501L354.891 129.685C350.594 129.685 347.74 131.869 347.127 135.218L345.607 144.349H340.752L343.869 125.795H348.724L348.199 128.814C350.2 126.74 352.759 125.501 355.58 125.501Z" fill="white"/>
<path d="M391.656 135.072C390.748 140.605 385.325 144.79 379.124 144.79C375.833 144.79 373.318 143.514 371.885 141.44L371.415 144.349H366.56L370.934 118.151H375.789L374.007 128.704C376.172 126.63 379.124 125.355 382.416 125.355C388.616 125.355 392.564 129.539 391.656 135.072ZM380.775 129.282C376.872 129.282 373.536 131.796 372.968 135.072C372.443 138.348 374.914 140.853 378.862 140.853C382.766 140.853 386.101 138.339 386.626 135.072C387.184 131.796 384.712 129.282 380.775 129.282Z" fill="white"/>
<path d="M418.415 135.108C418.327 135.512 418.196 136.2 418.021 136.641H399.715C399.978 139.338 402.231 141.119 405.566 141.119C408.387 141.119 410.902 140.027 412.16 138.467H417.409C415.156 142.22 410.388 144.798 404.921 144.798C398.195 144.798 393.865 140.614 394.773 135.081C395.68 129.548 401.498 125.363 408.212 125.363C414.981 125.354 419.323 129.538 418.415 135.108ZM400.328 133.291H413.461C413.111 130.75 410.815 129.034 407.611 129.034C404.407 129.034 401.542 130.74 400.328 133.291Z" fill="white"/>
<path d="M420.623 138.889H425.566C425.347 140.201 426.474 141.257 428.169 141.257C429.733 141.257 431.121 140.422 431.296 139.293C431.515 137.907 430.039 137.182 427.874 136.669C424.713 135.98 421.673 134.558 422.242 130.952C422.898 127.392 426.703 125.354 430.739 125.354C435.124 125.354 437.89 127.869 437.376 130.998H432.434C432.652 129.832 431.657 128.887 430.137 128.887C428.705 128.887 427.403 129.686 427.272 130.704C427.053 132.016 428.486 132.778 430.782 133.292C434.249 134.053 436.895 135.623 436.381 138.935C435.725 142.606 431.876 144.789 427.535 144.789C422.92 144.789 420.055 142.165 420.623 138.889Z" fill="white"/>
<path d="M454.228 129.502H449.504L447.033 144.349H442.177L444.649 129.502H440.176L440.832 125.795H445.25L446.038 121.207L451.057 120.335L450.149 125.795H454.873L454.228 129.502Z" fill="white"/>
<path d="M684.602 60.5342C685.98 61.2132 687.074 62.14 687.872 63.3053C688.67 64.4707 689.075 65.737 689.075 67.1134C689.075 68.4715 688.67 69.7378 687.872 70.9123C687.074 72.0869 685.969 73.0228 684.581 73.7202C683.192 74.4176 681.661 74.7663 679.988 74.7663C678.336 74.7663 676.817 74.4176 675.428 73.7386C674.05 73.0503 672.956 72.1236 672.169 70.9582C671.371 69.7928 670.977 68.5265 670.977 67.1685C670.977 65.8104 671.382 64.5441 672.18 63.3696C672.978 62.195 674.072 61.2591 675.45 60.5617C676.827 59.8643 678.358 59.5156 680.031 59.5156C681.705 59.5156 683.225 59.8551 684.602 60.5342ZM683.749 72.4539C684.876 71.9033 685.773 71.1509 686.418 70.1966C687.063 69.2514 687.391 68.2237 687.391 67.1134C687.391 66.0031 687.063 64.9846 686.418 64.0578C685.773 63.131 684.887 62.3786 683.76 61.828C682.634 61.2774 681.398 61.0022 680.042 61.0022C678.686 61.0022 677.451 61.2866 676.313 61.8464C675.176 62.4061 674.29 63.1585 673.645 64.1037C672.989 65.0488 672.672 66.0673 672.672 67.1777C672.672 68.288 672.989 69.3065 673.634 70.2425C674.28 71.1784 675.154 71.9217 676.281 72.4723C677.407 73.0228 678.643 73.2981 679.999 73.2981C681.366 73.2797 682.623 73.0045 683.749 72.4539ZM683.432 67.2419C683.126 67.6548 682.678 67.9668 682.109 68.1687L684.088 70.637H682.164L680.589 68.4439H680.272H678.293V70.637H676.609V63.1952H680.272C681.431 63.1952 682.328 63.4155 682.951 63.8559C683.585 64.2964 683.903 64.9295 683.903 65.7462C683.892 66.3335 683.738 66.829 683.432 67.2419ZM678.282 67.2511H680.261C680.906 67.2511 681.398 67.1226 681.759 66.8565C682.12 66.5904 682.295 66.2325 682.295 65.7645C682.295 65.3057 682.12 64.9479 681.759 64.7093C681.398 64.4707 680.906 64.3514 680.261 64.3514H678.282V67.2511Z" fill="white"/>
</svg>
