<svg width="417" height="98" viewBox="0 0 417 98" fill="none" xmlns="http://www.w3.org/2000/svg">
<path d="M117.936 22.1338C118.207 20.99 119.337 20.1704 120.651 20.1704H129.534C130.347 20.1704 131.113 20.4947 131.628 21.0607C132.143 21.6267 132.335 22.3637 132.17 23.0712C131.661 25.2233 133.22 26.9685 135.65 26.9685H174.935C178.29 26.9685 180.456 29.374 179.75 32.3161C179.05 35.2641 175.741 37.6637 172.385 37.6637H133.101C130.67 37.6637 128.279 39.4089 127.771 41.5492L126.153 48.3472C125.644 50.4875 127.203 52.2327 129.633 52.2327H172.465C176.328 52.2327 178.812 54.9861 178.006 58.3645C177.2 61.7546 173.403 64.5081 169.539 64.5081H122.104C114.244 64.5081 109.185 58.8833 110.83 51.9732L117.936 22.1338Z" fill="white"/>
<path d="M193.183 22.1338C193.454 20.99 194.583 20.1704 195.898 20.1704H204.781C205.593 20.1704 206.366 20.4947 206.875 21.0607C207.383 21.6267 207.581 22.3637 207.416 23.0712C206.908 25.2233 208.466 26.9685 210.897 26.9685H250.182C253.537 26.9685 255.703 29.374 254.997 32.3161C254.296 35.2641 250.988 37.6637 247.632 37.6637H208.348C205.917 37.6637 203.526 39.4089 203.011 41.5492L201.393 48.3472C200.884 50.4875 202.443 52.2327 204.874 52.2327H247.705C251.569 52.2327 254.052 54.9861 253.246 58.3645C252.441 61.7546 248.643 64.5081 244.779 64.5081H197.344C189.485 64.5081 184.425 58.8833 186.07 51.9732L193.183 22.1338Z" fill="white"/>
<path d="M331.876 9.70475L307.815 29.8277C306.071 31.2722 305.563 33.3947 306.613 34.8687L320.965 54.8324C323.726 58.6943 319.162 64.5372 313.495 64.5372C311.494 64.5372 309.79 63.7707 308.825 62.4323L296.184 44.8388C295.563 43.9662 294.467 43.4709 293.166 43.4709C292.122 43.4709 290.299 44.1608 289.487 44.8388L277.915 54.461C276.654 55.5105 275.888 56.7899 275.478 58.4938C274.699 61.7779 271.007 64.4547 267.249 64.4547H266.39C262.645 64.4547 260.228 61.7779 261.014 58.4938L269.811 21.5438C270.056 20.5121 271.08 19.781 272.255 19.781H273.147C275.96 19.781 278.629 20.9248 280.405 22.8763C282.182 24.8279 282.876 27.3926 282.294 29.8513C281.502 33.2179 280.901 35.8121 280.749 36.5844C289.11 31.1484 284.864 34.3145 323.362 2.11075C324.967 0.766475 327.028 0 329.029 0C334.755 0 336.426 5.90186 331.876 9.70475Z" fill="white"/>
<path d="M262.269 0.0209961H108.016C104.859 0.0209961 101.973 1.39476 100.196 3.59985C99.9782 3.86516 99.7669 4.13638 99.5819 4.43118C77.2647 38.4804 72.1791 46.5932 72.1791 46.5932C70.2307 39.8129 71.162 44.1228 64.3459 4.94413C63.2231 -1.54143 52.715 -1.58271 48.4484 4.94413C23.3704 43.5391 26.3689 39.182 21.1248 46.1746C20.2662 42.5014 20.5568 44.1051 17.73 28.2921C16.8648 23.4575 12.2216 19.9022 6.73315 19.9022H2.55898C2.05042 19.9022 1.56828 20.1026 1.23804 20.4446C0.907806 20.7866 0.762503 21.2465 0.841759 21.6946L7.22189 58.4382C8.62209 66.439 21.5805 66.5157 26.8643 58.4854C60.5152 7.33199 40.6813 37.425 53.4746 17.5556C56.4401 36.6939 51.5988 9.82009 60.4491 58.4854C61.9022 66.5039 74.8804 66.4508 80.1047 58.4382L110.341 11.919L250.988 12.0311C257.044 12.0311 263.022 7.63268 264.31 2.22019C264.323 2.17302 264.277 2.14944 264.283 2.10227L264.349 2.04331C264.349 2.04921 264.574 0.0917477 262.269 0.0209961Z" fill="white"/>
<path d="M327.741 44.9038L331.73 28.1829C331.856 27.6522 332.384 27.2749 332.992 27.2749H337.113C337.49 27.2749 337.846 27.4282 338.084 27.6876C338.322 27.947 338.414 28.2949 338.335 28.6192C338.097 29.6156 338.824 30.4292 339.947 30.4292H358.176C359.741 30.4292 360.751 31.5436 360.421 32.9173C360.098 34.2852 358.565 35.3995 357.007 35.3995H338.764C337.642 35.3995 336.532 36.2073 336.294 37.2037L334.458 44.9097C334.075 46.537 332.252 47.8577 330.403 47.8577C328.547 47.8518 327.358 46.5311 327.741 44.9038Z" fill="#F1590E"/>
<path d="M368.855 27.9055C368.967 27.4279 369.442 27.0859 369.991 27.0859H370.043C371.437 27.0859 372.765 27.652 373.643 28.6189C374.521 29.5858 374.865 30.8594 374.574 32.0798L371.523 44.8859C371.133 46.5131 369.317 47.8279 367.468 47.8279C365.618 47.8279 364.429 46.5072 364.819 44.8859L368.855 27.9055Z" fill="#F1590E"/>
<path d="M363.532 23.4953H337.047H333.85C332.78 23.4659 332.886 22.5579 332.886 22.5579L332.919 22.5284C332.926 22.5048 332.899 22.493 332.906 22.4694C333.507 19.9519 336.281 17.9119 339.095 17.9119H364.859C366.616 17.9119 367.746 19.1677 367.382 20.7066C367.019 22.2395 365.289 23.4953 363.532 23.4953Z" fill="#F1590E"/>
<path d="M412.672 23.4953H386.187H382.99C381.92 23.4659 382.026 22.5579 382.026 22.5579L382.059 22.5284C382.065 22.5048 382.039 22.493 382.046 22.4694C382.647 19.9519 385.421 17.9119 388.234 17.9119H413.999C415.756 17.9119 416.885 19.1677 416.516 20.7066C416.159 22.2395 414.428 23.4953 412.672 23.4953Z" fill="#F1590E"/>
<path d="M375.394 23.4953H374.185H370.989C369.919 23.4659 370.024 22.5579 370.024 22.5579L370.057 22.5284C370.064 22.5048 370.038 22.493 370.044 22.4694C370.645 19.9519 373.419 17.9119 376.233 17.9119H376.715C378.472 17.9119 379.601 19.1677 379.238 20.7066C378.875 22.2395 377.144 23.4953 375.394 23.4953Z" fill="#F1590E"/>
<path d="M393.47 28.1475C393.589 27.6405 394.098 27.2749 394.679 27.2749C396.073 27.2749 397.4 27.835 398.279 28.8079C399.157 29.7748 399.501 31.0483 399.21 32.2688L396.198 44.9156C395.809 46.537 393.992 47.8636 392.136 47.8636C390.28 47.8636 389.092 46.5429 389.475 44.9156L393.47 28.1475Z" fill="#F1590E"/>
<path d="M113.782 75.9172H116.714L114.066 92.7502H111.133L113.782 75.9172Z" fill="#F1590E"/>
<path d="M119.435 80.8282H122.368L120.485 92.7498H117.553L119.435 80.8282ZM119.594 77.1551C119.752 76.194 120.69 75.4983 121.74 75.4983C122.817 75.4983 123.523 76.1999 123.365 77.1551C123.206 78.0925 122.288 78.8177 121.218 78.8177C120.148 78.8177 119.461 78.0925 119.594 77.1551Z" fill="#F1590E"/>
<path d="M138.768 80.8281L131.225 92.7497H128.16L124.363 80.8281H127.606L130.149 89.6662L135.492 80.8281H138.768Z" fill="#F1590E"/>
<path d="M152.512 86.813C152.459 87.0725 152.38 87.5147 152.274 87.7977H141.225C141.383 89.5311 142.744 90.6749 144.758 90.6749C146.462 90.6749 147.981 89.9733 148.741 88.971H151.911C150.551 91.3824 147.671 93.0392 144.369 93.0392C140.307 93.0392 137.691 90.3506 138.239 86.7954C138.788 83.2401 142.301 80.5515 146.357 80.5515C150.445 80.5456 153.067 83.2342 152.512 86.813ZM141.595 85.6456H149.527C149.315 84.0125 147.928 82.9099 145.993 82.9099C144.058 82.9099 142.328 84.0066 141.595 85.6456Z" fill="#F1590E"/>
<path d="M175.113 80.8281L164.744 97.1894H161.58L164.46 92.679L160.715 80.8281H163.958L166.501 89.6662L171.844 80.8281H175.113Z" fill="#F1590E"/>
<path d="M174.591 86.7885C175.139 83.2332 178.653 80.5447 182.734 80.5447C186.796 80.5447 189.438 83.2332 188.89 86.7885C188.342 90.3438 184.802 93.0323 180.746 93.0323C176.665 93.0323 174.043 90.3438 174.591 86.7885ZM185.852 86.7885C186.195 84.6836 184.703 83.074 182.318 83.074C179.96 83.074 177.946 84.6895 177.603 86.7885C177.286 88.8934 178.778 90.5088 181.136 90.5088C183.527 90.503 185.541 88.8934 185.852 86.7885Z" fill="#F1590E"/>
<path d="M204.61 80.8279L202.721 92.7496H199.788L200.052 91.1576C198.844 92.3722 197.278 93.0267 195.469 93.0267C192.404 93.0267 190.647 91.2048 191.096 88.4219L192.305 80.822H195.238L194.135 87.6496C193.897 89.3594 194.947 90.5032 196.829 90.5032C198.659 90.5032 200.105 89.495 200.548 87.9797L201.677 80.8279H204.61Z" fill="#F1590E"/>
<path d="M215.164 80.6392L214.748 83.3277C212.152 83.3277 210.428 84.731 210.059 86.883L209.141 92.7495H206.208L208.09 80.8278H211.023L210.706 82.7676C211.914 81.4351 213.46 80.6392 215.164 80.6392Z" fill="#F1590E"/>
<path d="M236.953 86.7894C236.404 90.3447 233.129 93.0332 229.384 93.0332C227.396 93.0332 225.877 92.2137 225.011 90.8812L224.727 92.7502H221.795L224.437 75.9172H227.369L226.293 82.6976C227.6 81.3651 229.384 80.5456 231.372 80.5456C235.117 80.5456 237.501 83.2341 236.953 86.7894ZM230.381 83.069C228.023 83.069 226.009 84.6845 225.665 86.7894C225.348 88.8943 226.841 90.5039 229.225 90.5039C231.583 90.5039 233.597 88.8884 233.915 86.7894C234.251 84.6845 232.759 83.069 230.381 83.069Z" fill="#F1590E"/>
<path d="M253.114 86.813C253.061 87.0725 252.982 87.5147 252.876 87.7977H241.82C241.978 89.5311 243.339 90.6749 245.353 90.6749C247.057 90.6749 248.577 89.9733 249.336 88.971H252.506C251.146 91.3824 248.266 93.0392 244.964 93.0392C240.902 93.0392 238.286 90.3506 238.835 86.7954C239.383 83.2401 242.897 80.5515 246.952 80.5515C251.04 80.5456 253.662 83.2342 253.114 86.813ZM242.19 85.6456H250.122C249.911 84.0125 248.524 82.9099 246.589 82.9099C244.653 82.9099 242.923 84.0066 242.19 85.6456Z" fill="#F1590E"/>
<path d="M254.449 89.2412H257.434C257.302 90.0843 257.982 90.7624 259.006 90.7624C259.95 90.7624 260.789 90.2258 260.895 89.5006C261.027 88.6104 260.135 88.1446 258.827 87.8144C256.919 87.3722 255.083 86.4583 255.426 84.1412C255.822 81.8536 258.121 80.5447 260.558 80.5447C263.206 80.5447 264.877 82.1602 264.567 84.1707H261.582C261.714 83.4219 261.113 82.8146 260.195 82.8146C259.329 82.8146 258.543 83.3276 258.464 83.982C258.332 84.8251 259.197 85.3145 260.584 85.6447C262.678 86.134 264.276 87.1423 263.966 89.2707C263.57 91.6291 261.245 93.0323 258.623 93.0323C255.836 93.0323 254.105 91.3461 254.449 89.2412Z" fill="#F1590E"/>
<path d="M274.745 83.2101H271.892L270.399 92.7498H267.467L268.96 83.2101H266.258L266.655 80.8282H269.323L269.798 77.8802L272.83 77.3201L272.282 80.8282H275.135L274.745 83.2101Z" fill="#F1590E"/>
<path d="M413.886 38.8957C414.718 39.332 415.378 39.9275 415.86 40.6762C416.343 41.425 416.587 42.2387 416.587 43.1231C416.587 43.9957 416.343 44.8093 415.86 45.564C415.378 46.3187 414.711 46.9201 413.872 47.3682C413.034 47.8162 412.109 48.0403 411.098 48.0403C410.101 48.0403 409.183 47.8162 408.344 47.3799C407.512 46.9378 406.852 46.3423 406.376 45.5935C405.894 44.8447 405.656 44.031 405.656 43.1584C405.656 42.2858 405.901 41.4722 406.383 40.7175C406.865 39.9628 407.525 39.3614 408.358 38.9133C409.19 38.4653 410.114 38.2412 411.125 38.2412C412.135 38.2412 413.053 38.4594 413.886 38.8957ZM413.371 46.5545C414.051 46.2008 414.592 45.7173 414.982 45.1041C415.372 44.4968 415.57 43.8365 415.57 43.1231C415.57 42.4097 415.372 41.7552 414.982 41.1597C414.592 40.5642 414.057 40.0807 413.377 39.727C412.697 39.3732 411.95 39.1964 411.132 39.1964C410.313 39.1964 409.566 39.3791 408.879 39.7388C408.192 40.0984 407.657 40.5819 407.268 41.1892C406.872 41.7965 406.68 42.4509 406.68 43.1643C406.68 43.8777 406.872 44.5322 407.261 45.1336C407.651 45.735 408.179 46.2126 408.86 46.5663C409.54 46.9201 410.286 47.0969 411.105 47.0969C411.931 47.0851 412.69 46.9083 413.371 46.5545ZM413.179 43.2056C412.994 43.4709 412.723 43.6714 412.38 43.8011L413.575 45.3871H412.413L411.462 43.978H411.27H410.075V45.3871H409.058V40.6055H411.27C411.97 40.6055 412.512 40.747 412.888 41.03C413.271 41.313 413.463 41.7198 413.463 42.2446C413.456 42.6219 413.364 42.9403 413.179 43.2056ZM410.068 43.2115H411.264C411.653 43.2115 411.95 43.129 412.168 42.958C412.386 42.787 412.492 42.5571 412.492 42.2564C412.492 41.9616 412.386 41.7316 412.168 41.5783C411.95 41.425 411.653 41.3484 411.264 41.3484H410.068V43.2115Z" fill="white"/>
</svg>
